<?xml version="1.0" encoding="UTF-8"?>
<!DOCTYPE svg PUBLIC "-//W3C//DTD SVG 1.1//EN" "http://www.w3.org/Graphics/SVG/1.1/DTD/svg11.dtd">

<svg xmlns="http://www.w3.org/2000/svg" xmlns:xlink="http://www.w3.org/1999/xlink" xmlns:xs="http://www.w3.org/2001/XMLSchema" xmlns:wb="http://www.ti.com/webench" version="1.1" width="100%" height="100%" viewBox="0 0 1645.0 670.0" preserveAspectRatio="xMidYMid meet">
  <defs>
    <g id="WB_CONTINUATION">
      <circle xmlns="" opacity="0.01" fill="#ffffff" stroke="#000000" stroke-width="0" cx="0" cy="0" r="14" />
      <line fill="none" stroke="#CC0000" stroke-width="2" x1="0" y1="10" x2="0" y2="-10" />
      <line fill="none" stroke="#CC0000" stroke-width="2" x1="-10" y1="-10" x2="10" y2="-10" />
    </g>
    <g id="WB_BLOCK_IO">
      <circle xmlns="" opacity="0.01" fill="#ffffff" stroke="#000000" stroke-width="0" cx="0" cy="0" r="14" />
      <line stroke="#CC0000" fill="none" stroke-width="2" x1="-5" y1="0" x2="5" y2="0" />
    </g>
    <g id="WB_STARTUP_VOLTAGE_SOURCE">
      <circle xmlns="" opacity="0.01" fill="#ffffff" stroke="#000000" stroke-width="0" cx="0" cy="0" r="14" />
      <circle fill-opacity="0.01" fill="#CC0000" stroke="#CC0000" stroke-width="2" cx="0" cy="0" r="14" />
      <polyline fill="none" stroke="#CC0000" stroke-width="2" points="-6,-11 -6,7 5,9 5,12 " />
      <line fill="none" stroke="#CC0000" stroke-width="2" x1="16" y1="-12" x2="16" y2="-18" />
      <line fill="none" stroke="#CC0000" stroke-width="2" x1="-17" y1="-12" x2="-17" y2="-18" />
      <line fill="none" stroke="#CC0000" stroke-width="2" x1="-14" y1="-15" x2="-20" y2="-15" />
      <line fill="none" stroke="#CC0000" stroke-width="2" x1="-15" y1="0" x2="-30" y2="0" />
      <line fill="none" stroke="#CC0000" stroke-width="2" x1="30" y1="0" x2="15" y2="0" />
    </g>
    <g id="WB_SOURCE_RESISTOR">
      <circle xmlns="" opacity="0.01" fill="#ffffff" stroke="#000000" stroke-width="0" cx="0" cy="0" r="14" />
      <polyline fill="none" stroke="#CC0000" stroke-width="2" stroke-linecap="round" stroke-linejoin="round" points="30,0 20,0 15,-6 7.5,6 0,-6 -7.5,6 -15,-6 -20,0 -30,0" />
    </g>
    <g id="WB_PRIM_STARTUP_VOLTAGE_SOURCE">
      <circle xmlns="" opacity="0.01" fill="#ffffff" stroke="#000000" stroke-width="0" cx="0" cy="0" r="14" />
      <circle fill-opacity="0.01" fill="#CC0000" stroke="#CC0000" stroke-width="2" cx="0" cy="0" r="14" />
      <polyline fill="none" stroke="#CC0000" stroke-width="2" points="-6,-11 -6,7 5,9 5,12 " />
      <line fill="none" stroke="#CC0000" stroke-width="2" x1="16" y1="-12" x2="16" y2="-18" />
      <line fill="none" stroke="#CC0000" stroke-width="2" x1="-17" y1="-12" x2="-17" y2="-18" />
      <line fill="none" stroke="#CC0000" stroke-width="2" x1="-14" y1="-15" x2="-20" y2="-15" />
      <line fill="none" stroke="#CC0000" stroke-width="2" x1="-15" y1="0" x2="-30" y2="0" />
      <line fill="none" stroke="#CC0000" stroke-width="2" x1="30" y1="0" x2="15" y2="0" />
    </g>
    <g id="WB_CURRENT_PROBE">
      <circle xmlns="" opacity="0.01" fill="#ffffff" stroke="#000000" stroke-width="0" cx="0" cy="0" r="14" />
      <line stroke="#CC0000" stroke-width="2" stroke-linecap="square" stroke-linejoin="round" x1="-16" y1="0" x2="-10" y2="0" />
      <polyline stroke="#CC0000" stroke-width="2" stroke-linecap="square" stroke-linejoin="round" points="6,0 3,-3.5 3,3.5 6,0 -6,0 " />
      <line stroke="#CC0000" stroke-width="2" stroke-linecap="square" stroke-linejoin="round" x1="10" y1="0" x2="16" y2="0" />
      <rect stroke-width="1" x="-9.5" y="-7" fill="none" stroke="#CC0000" width="19" height="14" />
    </g>
    <g id="WB_PWL_CURRENT_LOAD">
      <circle xmlns="" opacity="0.01" fill="#ffffff" stroke="#000000" stroke-width="0" cx="0" cy="0" r="14" />
      <circle fill-opacity="0.01" fill="#CC0000" stroke="#CC0000" stroke-width="2" cx="0" cy="0" r="14" />
      <line y1="0" x2="-20" stroke="#CC0000" x1="-30" fill="none" stroke-width="2" y2="0" />
      <line y1="0" x2="20" stroke="#CC0000" x1="30" fill="none" stroke-width="2" y2="0" />
      <polyline stroke="#CC0000" points="-7,6 4,8  " stroke-linejoin="round" fill="none" stroke-width="2" stroke-linecap="round" />
      <polyline stroke="#CC0000" points="-7,-6 4,-8  " stroke-linejoin="round" fill="none" stroke-width="2" stroke-linecap="round" />
      <polyline stroke="#CC0000" points="-20,0 -15,0  " stroke-linejoin="round" fill="none" stroke-width="2" stroke-linecap="round" />
      <polyline stroke="#CC0000" points="20,0 15,0  " stroke-linejoin="round" fill="none" stroke-width="2" stroke-linecap="round" />
      <polyline stroke="#CC0000" points="-7,-6 -7,6  " stroke-linejoin="round" fill="none" stroke-width="2" stroke-linecap="round" />
      <polyline stroke="#CC0000" points="4,-8 4,-11  " stroke-linejoin="round" fill="none" stroke-width="2" stroke-linecap="round" />
      <polyline stroke="#CC0000" points="4,8 4,11  " stroke-linejoin="round" fill="none" stroke-width="2" stroke-linecap="round" />
      <line x1="23" y1="-13" x2="23" y2="-7" stroke="#CC0000" fill="none" stroke-width="2" stroke-linecap="round" />
      <line x1="-23" y1="-13" x2="-23" y2="-7" stroke="#CC0000" fill="none" stroke-width="2" stroke-linecap="round" />
      <line x1="-26" y1="-10" x2="-20" y2="-10" stroke="#CC0000" fill="none" stroke-width="2" stroke-linecap="round" />
    </g>
    <g id="WB_CURRENT_LOAD">
      <circle xmlns="" opacity="0.01" fill="#ffffff" stroke="#000000" stroke-width="0" cx="0" cy="0" r="14" />
      <path fill="none" stroke="#CC0000" stroke-width="2" stroke-linecap="round" stroke-linejoin="round" d="M-15,0c 0.1, 4.2, 1.6, 7.7, 4.4, 10.6c 2.8, 2.8, 6.4, 4.3, 10.6, 4.4c 4.3-0.1, 7.8-1.6, 10.6 -4.4c 2.9-2.9, 4.3-6.4, 4.4-10.6" />
      <path fill="none" stroke="#CC0000" stroke-width="2" stroke-linecap="round" stroke-linejoin="round" d="M15,0c -0.1,-4.2,-1.6,-7.7,-4.4,-10.6c-2.8,-2.8,-6.4,-4.3,-10.6,-4.4c-4.3,0.1 -7.8,1.6 -10.6,4.4c-2.9,2.9 -4.3,6.4 -4.4,10.6" />
      <line fill="none" stroke="#CC0000" stroke-width="2" x1="30" y1="0" x2="15" y2="0" />
      <line fill="none" stroke="#CC0000" stroke-width="2" x1="-15" y1="0" x2="-30" y2="0" />
      <line fill="none" stroke="#CC0000" stroke-width="2" stroke-linecap="round" stroke-linejoin="round" x1="3" y1="7" x2="12" y2="0" />
      <line fill="none" stroke="#CC0000" stroke-width="2" stroke-linecap="round" stroke-linejoin="round" x1="3" y1="-7" x2="12" y2="0" />
      <line fill="none" stroke="#CC0000" stroke-width="2" stroke-linecap="round" stroke-linejoin="round" x1="12" y1="0" x2="-12" y2="0" />
    </g>
    <g id="WB_ZERO_VOLT_SOURCE">
      <circle xmlns="" opacity="0.01" fill="#ffffff" stroke="#000000" stroke-width="0" cx="0" cy="0" r="14" />
      <line stroke="#CC0000" fill="none" stroke-width="2" x1="-5" y1="0" x2="5" y2="0" />
    </g>
    <g id="WB_PWL_VOLTAGE_SOURCE">
      <circle xmlns="" opacity="0.01" fill="#ffffff" stroke="#000000" stroke-width="0" cx="0" cy="0" r="14" />
      <circle fill-opacity="0.01" fill="#CC0000" stroke="#CC0000" stroke-width="2" cx="0" cy="0" r="14" />
      <line y1="0" x2="-20" stroke="#CC0000" x1="-30" fill="none" stroke-width="2" y2="0" />
      <line y1="0" x2="20" stroke="#CC0000" x1="30" fill="none" stroke-width="2" y2="0" />
      <polyline stroke="#CC0000" points="-7,6 4,8  " stroke-linejoin="round" fill="none" stroke-width="2" stroke-linecap="round" />
      <polyline stroke="#CC0000" points="-7,-6 4,-8  " stroke-linejoin="round" fill="none" stroke-width="2" stroke-linecap="round" />
      <polyline stroke="#CC0000" points="-20,0 -15,0  " stroke-linejoin="round" fill="none" stroke-width="2" stroke-linecap="round" />
      <polyline stroke="#CC0000" points="20,0 15,0  " stroke-linejoin="round" fill="none" stroke-width="2" stroke-linecap="round" />
      <polyline stroke="#CC0000" points="-7,-6 -7,6  " stroke-linejoin="round" fill="none" stroke-width="2" stroke-linecap="round" />
      <polyline stroke="#CC0000" points="4,-8 4,-11  " stroke-linejoin="round" fill="none" stroke-width="2" stroke-linecap="round" />
      <polyline stroke="#CC0000" points="4,8 4,11  " stroke-linejoin="round" fill="none" stroke-width="2" stroke-linecap="round" />
      <line x1="23" y1="-13" x2="23" y2="-7" stroke="#CC0000" fill="none" stroke-width="2" stroke-linecap="round" />
      <line x1="-23" y1="-13" x2="-23" y2="-7" stroke="#CC0000" fill="none" stroke-width="2" stroke-linecap="round" />
      <line x1="-26" y1="-10" x2="-20" y2="-10" stroke="#CC0000" fill="none" stroke-width="2" stroke-linecap="round" />
    </g>
    <g id="WB_PRIM_PWL_VOLTAGE_SOURCE">
      <circle xmlns="" opacity="0.01" fill="#ffffff" stroke="#000000" stroke-width="0" cx="0" cy="0" r="14" />
      <circle fill-opacity="0.01" fill="#CC0000" stroke="#CC0000" stroke-width="2" cx="0" cy="0" r="14" />
      <line x1="-30" y1="0" x2="-15" y2="0" stroke="#CC0000" fill="none" stroke-width="2" />
      <line x1="30" y1="0" x2="15" y2="0" stroke="#CC0000" fill="none" stroke-width="2" />
      <polyline stroke="#CC0000" points="0,13 0,8 -7,6 -7,0 7,-4 0,-8 0,-13" stroke-linejoin="round" fill="none" stroke-width="2" stroke-linecap="round" />
      <line x1="23" y1="-13" x2="23" y2="-7" stroke="#CC0000" fill="none" stroke-width="2" stroke-linecap="round" />
      <line x1="-23" y1="-13" x2="-23" y2="-7" stroke="#CC0000" fill="none" stroke-width="2" stroke-linecap="round" />
      <line x1="-26" y1="-10" x2="-20" y2="-10" stroke="#CC0000" fill="none" stroke-width="2" stroke-linecap="round" />
    </g>
    <g id="WB_LOAD_RESISTOR">
      <circle xmlns="" opacity="0.01" fill="#ffffff" stroke="#000000" stroke-width="0" cx="0" cy="0" r="14" />
      <polyline fill="none" stroke="#CC0000" stroke-width="2" stroke-linecap="round" stroke-linejoin="round" points="30,0 20,0 15,-6 7.5,6 0,-6 -7.5,6 -15,-6 -20,0 -30,0" />
    </g>
    <g id="WB_PRIMITIVE_BATTERY">
      <circle xmlns="" opacity="0.01" fill="#ffffff" stroke="#000000" stroke-width="0" cx="0" cy="0" r="14" />
      <line fill="none" stroke="#CC0000" stroke-width="2" x1="-8" y1="0" x2="-30" y2="0" />
      <line fill="none" stroke="#CC0000" stroke-width="2" x1="-7" y1="12" x2="-7" y2="-12" />
      <line fill="none" stroke="#CC0000" stroke-width="2" x1="4" y1="12" x2="4" y2="-12" />
      <line fill="none" stroke="#CC0000" stroke-width="2" x1="30" y1="0" x2="11" y2="0" />
      <line fill="none" stroke="#CC0000" stroke-width="2" x1="-2" y1="5" x2="-2" y2="-5" />
      <line fill="none" stroke="#CC0000" stroke-width="2" x1="-1" y1="5" x2="-1" y2="-5" />
      <line fill="none" stroke="#CC0000" stroke-width="2" x1="-14" y1="-9" x2="-14" y2="-15" />
      <line fill="none" stroke="#CC0000" stroke-width="2" x1="-11" y1="-12" x2="-17" y2="-12" />
      <line fill="none" stroke="#CC0000" stroke-width="2" x1="13" y1="-10" x2="13" y2="-15" />
      <line fill="none" stroke="#CC0000" stroke-width="2" x1="10" y1="5" x2="10" y2="-5" />
      <line fill="none" stroke="#CC0000" stroke-width="2" x1="9" y1="5" x2="9" y2="-5" />
    </g>
    <g id="WB_RESISTOR">
      <circle xmlns="" opacity="0.01" fill="#ffffff" stroke="#000000" stroke-width="0" cx="0" cy="0" r="14" />
      <polyline fill="none" stroke="#115566" stroke-width="2" stroke-linecap="round" stroke-linejoin="round" points="30,0 20,0 15,-6 7.5,6 0,-6 -7.5,6 -15,-6 -20,0 -30,0" />
    </g>
    <g id="WB_BATTERY">
      <circle xmlns="" opacity="0.01" fill="#ffffff" stroke="#000000" stroke-width="0" cx="0" cy="0" r="14" />
      <line fill="none" stroke="#CC0000" stroke-width="2" x1="-8" y1="0" x2="-30" y2="0" />
      <line fill="none" stroke="#CC0000" stroke-width="2" x1="-7" y1="12" x2="-7" y2="-12" />
      <line fill="none" stroke="#CC0000" stroke-width="2" x1="4" y1="12" x2="4" y2="-12" />
      <line fill="none" stroke="#CC0000" stroke-width="2" x1="30" y1="0" x2="11" y2="0" />
      <line fill="none" stroke="#CC0000" stroke-width="2" x1="-2" y1="5" x2="-2" y2="-5" />
      <line fill="none" stroke="#CC0000" stroke-width="2" x1="-1" y1="5" x2="-1" y2="-5" />
      <line fill="none" stroke="#CC0000" stroke-width="2" x1="-14" y1="-9" x2="-14" y2="-15" />
      <line fill="none" stroke="#CC0000" stroke-width="2" x1="-11" y1="-12" x2="-17" y2="-12" />
      <line fill="none" stroke="#CC0000" stroke-width="2" x1="13" y1="-10" x2="13" y2="-15" />
      <line fill="none" stroke="#CC0000" stroke-width="2" x1="10" y1="5" x2="10" y2="-5" />
      <line fill="none" stroke="#CC0000" stroke-width="2" x1="9" y1="5" x2="9" y2="-5" />
    </g>
    <g id="WB_CAPACITOR">
      <circle xmlns="" opacity="0.01" fill="#ffffff" stroke="#000000" stroke-width="0" cx="0" cy="0" r="14" />
      <line y1="0" x2="20" stroke="#115566" x1="30" fill="none" stroke-width="2" y2="0" />
      <line y1="0" x2="-20" stroke="#115566" x1="-30" fill="none" stroke-width="2" y2="0" />
      <polyline stroke="#115566" points="3,12 3,-12  " stroke-linejoin="round" fill="none" stroke-width="2" stroke-linecap="round" />
      <polyline stroke="#115566" points="-20,0 -3,0  " stroke-linejoin="round" fill="none" stroke-width="2" stroke-linecap="round" />
      <polyline stroke="#115566" points="3,0 20,0  " stroke-linejoin="round" fill="none" stroke-width="2" stroke-linecap="round" />
      <polyline stroke="#115566" points="-3,12 -3,-12  " stroke-linejoin="round" fill="none" stroke-width="2" stroke-linecap="round" />
    </g>
    <g id="WB_INDUCTOR">
      <circle xmlns="" opacity="0.01" fill="#ffffff" stroke="#000000" stroke-width="0" cx="0" cy="0" r="14" />
      <path fill="none" stroke="#115566" stroke-width="2" stroke-linecap="round" stroke-linejoin="round" d="M-10,0c0-0.6-0.2-1.8-0.6-3.3c-0.5-2.4-2-3.7-4.4-4c-2.4,0.3-3.8,1.6-4.3,4c-0.6,2.3-0.8,3.6-0.7,3M-20,0H-30" />
      <path fill="none" stroke="#115566" stroke-width="2" stroke-linecap="round" stroke-linejoin="round" d="M0,0c0-0.6-0.2-1.8-0.6-3.3c-0.5-2.4-2-3.7-4.4-4c-2.4,0.3-3.8,1.6-4.3,4c-0.6,2.3-0.8,3.6-0.7,4" />
      <path fill="none" stroke="#115566" stroke-width="2" stroke-linecap="round" stroke-linejoin="round" d="M10,0c0-0.6-0.2-1.8-0.6-3.3c-0.5-2.4-2-3.7-4.4-4c-2.4,0.3-3.8,1.6-4.3,4c-0.6,2.3-0.8,3.6-0.7,4" />
      <path fill="none" stroke="#115566" stroke-width="2" stroke-linecap="round" stroke-linejoin="round" d="M30,0H20c0-0.6-0.2-1.8-0.6-3.3c-0.5-2.4-2-3.7-4.4-4c-2.4,0.3-3.8,1.6-4.3,4c-0.6,2.3-0.8,3.6-0.7,4" />
      <path fill="none" stroke="#115566" stroke-width="2" stroke-linecap="round" stroke-linejoin="round" d=" M10,0 c0.1,0.4,0.1,0.6,0,0.7" />
      <path fill="none" stroke="#115566" stroke-width="2" stroke-linecap="round" stroke-linejoin="round" d=" M0,0  c0.1,0.4,0.1,0.6,0,0.7" />
      <path fill="none" stroke="#115566" stroke-width="2" stroke-linecap="round" stroke-linejoin="round" d=" M-10,0c0.1,0.4,0.1,0.6,0,0.7" />
    </g>
    <g id="WB_VOLTAGE_PROBE">
      <circle xmlns="" opacity="0.01" fill="#ffffff" stroke="#000000" stroke-width="0" cx="0" cy="0" r="14" />
      <rect stroke-width="1" width="20" stroke="#CC0000" x="-10" height="19.5" y="-30" fill="#CC0000" fill-opacity="0.01" />
      <polyline stroke="#CC0000" points="7,-27 4,-22 3,-26 0,-18 -1,-22 -5,-14  " stroke-linejoin="round" fill="none" stroke-width="2" stroke-linecap="round" />
      <line y1="0" x2="0" stroke="#CC0000" x1="0" fill="none" stroke-width="2" y2="-10" />
    </g>
    <g id="WB_DIODE_SCHOTTKY">
      <circle xmlns="" opacity="0.01" fill="#ffffff" stroke="#000000" stroke-width="0" cx="0" cy="0" r="14" />
      <line x1="-30" y1="0" x2="30" y2="0" stroke="#115566" fill="none" stroke-width="2" />
      <polygon stroke="#115566" points="8,-10 -8,0 8,10" stroke-linejoin="round" fill="#115566" stroke-width="2" stroke-linecap="round" />
      <polyline stroke="#115566" points="-11,-8 -11,-10 -8,-10 -8,10 -5,10 -5,8" stroke-linejoin="round" fill="none" stroke-width="2" stroke-linecap="round" />
    </g>
    <g id="WB_GND">
      <circle xmlns="" opacity="0.01" fill="#ffffff" stroke="#000000" stroke-width="0" cx="0" cy="0" r="14" />
      <line fill="none" stroke="black" stroke-width="2" x1="0" y1="-10" x2="0" y2="0" />
      <line fill="none" stroke="black" stroke-width="2" x1="-13" y1="0" x2="13" y2="0" />
      <line fill="none" stroke="black" stroke-width="2" x1="-9" y1="4" x2="9" y2="4" />
      <line fill="none" stroke="black" stroke-width="2" x1="-3" y1="8" x2="3" y2="8" />
    </g>
    <g id="WB_LM5158RTE">
      <circle xmlns="" opacity="0.01" fill="#ffffff" stroke="#000000" stroke-width="0" cx="0" cy="0" r="14" />
      <line fill="none" stroke="#000000" stroke-width="2" stroke-linecap="round" stroke-linejoin="round" x1="20" y1="140" x2="170" y2="140" />
      <line fill="none" stroke="#000000" stroke-width="2" stroke-linecap="round" stroke-linejoin="round" x1="170" y1="140" x2="170" y2="-20" />
      <line fill="none" stroke="#000000" stroke-width="2" stroke-linecap="round" stroke-linejoin="round" x1="170" y1="-20" x2="20" y2="-20" />
      <line fill="none" stroke="#000000" stroke-width="2" stroke-linecap="round" stroke-linejoin="round" x1="20" y1="-20" x2="20" y2="140" />
      <text id="partNumber_label" x="95" y="-7" style="font-family:arial;font-weight:bold;font-size:12px;text-anchor:middle;">LM5158RTE</text>
      <line fill="none" stroke="#000000" stroke-width="2" stroke-linecap="round" stroke-linejoin="round" x1="190" y1="120" x2="170" y2="120" />
      <text id="1" x="166" y="124" transform="rotate(0,166,124)" style="font-family:arial;font-weight:normal;font-size:9px;text-anchor:end;">PGND</text>
      <line fill="none" stroke="#000000" stroke-width="2" stroke-linecap="round" stroke-linejoin="round" x1="0" y1="20" x2="20" y2="20" />
      <text id="2" x="24" y="24" transform="rotate(0,24,24)" style="font-family:arial;font-weight:normal;font-size:9px;text-anchor:start;">VCC</text>
      <line fill="none" stroke="#000000" stroke-width="2" stroke-linecap="round" stroke-linejoin="round" x1="0" y1="0" x2="20" y2="0" />
      <text id="3" x="24" y="4" transform="rotate(0,24,4)" style="font-family:arial;font-weight:normal;font-size:9px;text-anchor:start;">BIAS</text>
      <line fill="none" stroke="#000000" stroke-width="2" stroke-linecap="round" stroke-linejoin="round" x1="190" y1="50" x2="170" y2="50" />
      <text id="4" x="166" y="54" transform="rotate(0,166,54)" style="font-family:arial;font-weight:normal;font-size:9px;text-anchor:end;">PGOOD</text>
      <line fill="none" stroke="#000000" stroke-width="2" stroke-linecap="round" stroke-linejoin="round" x1="0" y1="90" x2="20" y2="90" />
      <text id="5" x="24" y="94" transform="rotate(0,24,94)" style="font-family:arial;font-weight:normal;font-size:9px;text-anchor:start;">RT</text>
      <line fill="none" stroke="#000000" stroke-width="2" stroke-linecap="round" stroke-linejoin="round" x1="0" y1="50" x2="20" y2="50" />
      <text id="6" x="24" y="54" transform="rotate(0,24,54)" style="font-family:arial;font-weight:normal;font-size:9px;text-anchor:start;">EN_UVLO_SYNC</text>
      <line fill="none" stroke="#000000" stroke-width="2" stroke-linecap="round" stroke-linejoin="round" x1="190" y1="110" x2="170" y2="110" />
      <text id="7" x="166" y="114" transform="rotate(0,166,114)" style="font-family:arial;font-weight:normal;font-size:9px;text-anchor:end;">AGND</text>
      <line fill="none" stroke="#000000" stroke-width="2" stroke-linecap="round" stroke-linejoin="round" x1="0" y1="130" x2="20" y2="130" />
      <text id="8" x="24" y="134" transform="rotate(0,24,134)" style="font-family:arial;font-weight:normal;font-size:9px;text-anchor:start;">COMP</text>
      <line fill="none" stroke="#000000" stroke-width="2" stroke-linecap="round" stroke-linejoin="round" x1="190" y1="30" x2="170" y2="30" />
      <text id="9" x="166" y="34" transform="rotate(0,166,34)" style="font-family:arial;font-weight:normal;font-size:9px;text-anchor:end;">FB</text>
      <line fill="none" stroke="#000000" stroke-width="2" stroke-linecap="round" stroke-linejoin="round" x1="0" y1="110" x2="20" y2="110" />
      <text id="10" x="24" y="114" transform="rotate(0,24,114)" style="font-family:arial;font-weight:normal;font-size:9px;text-anchor:start;">SS</text>
      <line fill="none" stroke="#000000" stroke-width="2" stroke-linecap="round" stroke-linejoin="round" x1="0" y1="70" x2="20" y2="70" />
      <text id="11" x="24" y="74" transform="rotate(0,24,74)" style="font-family:arial;font-weight:normal;font-size:9px;text-anchor:start;">MODE</text>
      <line fill="none" stroke="#000000" stroke-width="2" stroke-linecap="round" stroke-linejoin="round" x1="190" y1="70" x2="170" y2="70" />
      <text id="12" x="166" y="74" transform="rotate(0,166,74)" style="font-family:arial;font-weight:normal;font-size:9px;text-anchor:end;">NC</text>
      <line fill="none" stroke="#000000" stroke-width="2" stroke-linecap="round" stroke-linejoin="round" x1="190" y1="0" x2="170" y2="0" />
      <text id="13" x="166" y="4" transform="rotate(0,166,4)" style="font-family:arial;font-weight:normal;font-size:9px;text-anchor:end;">SW</text>
      <line fill="none" stroke="#000000" stroke-width="2" stroke-linecap="round" stroke-linejoin="round" x1="190" y1="10" x2="170" y2="10" />
      <text id="14" x="166" y="14" transform="rotate(0,166,14)" style="font-family:arial;font-weight:normal;font-size:9px;text-anchor:end;">SW</text>
      <line fill="none" stroke="#000000" stroke-width="2" stroke-linecap="round" stroke-linejoin="round" x1="190" y1="80" x2="170" y2="80" />
      <text id="15" x="166" y="84" transform="rotate(0,166,84)" style="font-family:arial;font-weight:normal;font-size:9px;text-anchor:end;">NC</text>
      <line fill="none" stroke="#000000" stroke-width="2" stroke-linecap="round" stroke-linejoin="round" x1="190" y1="130" x2="170" y2="130" />
      <text id="16" x="166" y="134" transform="rotate(0,166,134)" style="font-family:arial;font-weight:normal;font-size:9px;text-anchor:end;">PGND</text>
      <line fill="none" stroke="#000000" stroke-width="2" stroke-linecap="round" stroke-linejoin="round" x1="190" y1="100" x2="170" y2="100" />
      <text id="17" x="166" y="104" transform="rotate(0,166,104)" style="font-family:arial;font-weight:normal;font-size:9px;text-anchor:end;">EP</text>
    </g>
  </defs>
  <use id="Rt" class="comp" xlink:href="#WB_RESISTOR" x="525.0" y="415.0" transform="rotate(-90, 525.0, 415.0)" partNo="CRCW04029K76FKED" thermalId="0402" resistance="9.76kOhm" manufacturer="Vishay-Dale" />
  <text for="Rt" x="540.0" y="415.0" style="font-family:arial;font-size:13px;stroke-width:0.5;stroke:#115566;fill:#115566;">Rt</text>
  <text for="Rt" x="540.0" y="425.0" style="font-family:arial;font-size:10px;stroke-width:0.1;stroke:#CC0000;fill:#CC0000;">9.76kOhm</text>
  <use id="Ccomp" class="comp" xlink:href="#WB_CAPACITOR" x="745.0" y="485.0" transform="rotate(-90, 745.0, 485.0)" cap="47nF" partNo="GRM155R70J473KA01D" thermalId="0402" esr="1mOhm" manufacturer="MuRata" />
  <text for="Ccomp" x="760.0" y="485.0" style="font-family:arial;font-size:13px;stroke-width:0.5;stroke:#115566;fill:#115566;">Ccomp</text>
  <text for="Ccomp" x="760.0" y="495.0" style="font-family:arial;font-size:10px;stroke-width:0.1;stroke:#CC0000;fill:#CC0000;">47nF</text>
  <text for="Ccomp" x="760.0" y="505.0" style="font-family:arial;font-size:10px;stroke-width:0.1;stroke:#CC0000;fill:#CC0000;">1mOhm</text>
  <use id="Cin" class="comp" xlink:href="#WB_CAPACITOR" x="195.0" y="335.0" transform="rotate(-90, 195.0, 335.0)" cap="2.2uF" partNo="GRM188R71A225KE15D" thermalId="0603" esr="9mOhm" manufacturer="MuRata" />
  <text for="Cin" x="210.0" y="335.0" style="font-family:arial;font-size:13px;stroke-width:0.5;stroke:#115566;fill:#115566;">Cin</text>
  <text for="Cin" x="210.0" y="345.0" style="font-family:arial;font-size:10px;stroke-width:0.1;stroke:#CC0000;fill:#CC0000;">2.2uF</text>
  <text for="Cin" x="210.0" y="355.0" style="font-family:arial;font-size:10px;stroke-width:0.1;stroke:#CC0000;fill:#CC0000;">9mOhm</text>
  <use id="Rfbb" class="comp" xlink:href="#WB_RESISTOR" x="1230.0" y="435.0" transform="rotate(-90, 1230.0, 435.0)" partNo="CRCW04022K49FKED" thermalId="0402" resistance="2.49kOhm" manufacturer="Vishay-Dale" />
  <text for="Rfbb" x="1245.0" y="435.0" style="font-family:arial;font-size:13px;stroke-width:0.5;stroke:#115566;fill:#115566;">Rfbb</text>
  <text for="Rfbb" x="1245.0" y="445.0" style="font-family:arial;font-size:10px;stroke-width:0.1;stroke:#CC0000;fill:#CC0000;">2.49kOhm</text>
  <use id="Rfbt" class="comp" xlink:href="#WB_RESISTOR" x="1230.0" y="310.0" transform="rotate(-90, 1230.0, 310.0)" partNo="CRCW040247K5FKED" thermalId="0402" resistance="47.5kOhm" manufacturer="Vishay-Dale" />
  <text for="Rfbt" x="1245.0" y="310.0" style="font-family:arial;font-size:13px;stroke-width:0.5;stroke:#115566;fill:#115566;">Rfbt</text>
  <text for="Rfbt" x="1245.0" y="320.0" style="font-family:arial;font-size:10px;stroke-width:0.1;stroke:#CC0000;fill:#CC0000;">47.5kOhm</text>
  <use id="L1" class="comp" xlink:href="#WB_INDUCTOR" x="865.0" y="110.0" partNo="LQM2HPN3R3MGCL" thermalId="1008" l="3.3uH" dcr="160mOhm" manufacturer="MuRata" />
  <text for="L1" x="845.0" y="95.0" style="font-family:arial;font-size:13px;stroke-width:0.5;stroke:#115566;fill:#115566;">L1</text>
  <text for="L1" x="845.0" y="130.0" style="font-family:arial;font-size:10px;stroke-width:0.1;stroke:#CC0000;fill:#CC0000;">3.3uH</text>
  <text for="L1" x="845.0" y="140.0" style="font-family:arial;font-size:10px;stroke-width:0.1;stroke:#CC0000;fill:#CC0000;">160mOhm</text>
  <use id="Cbias" class="comp" xlink:href="#WB_CAPACITOR" x="645.0" y="145.0" transform="rotate(-180, 645.0, 145.0)" cap="100nF" partNo="08053C104KAT2A" thermalId="0805" esr="280mOhm" manufacturer="AVX" />
  <text for="Cbias" x="625.0" y="130.0" style="font-family:arial;font-size:13px;stroke-width:0.5;stroke:#115566;fill:#115566;">Cbias</text>
  <text for="Cbias" x="625.0" y="165.0" style="font-family:arial;font-size:10px;stroke-width:0.1;stroke:#CC0000;fill:#CC0000;">100nF</text>
  <text for="Cbias" x="625.0" y="175.0" style="font-family:arial;font-size:10px;stroke-width:0.1;stroke:#CC0000;fill:#CC0000;">280mOhm</text>
  <use id="Cout" class="comp" xlink:href="#WB_CAPACITOR" x="1325.0" y="375.0" transform="rotate(-90, 1325.0, 375.0)" cap="4.7uF" partNo="C2012X5R1H475K125AB" thermalId="0805" esr="1mOhm" manufacturer="TDK" />
  <text for="Cout" x="1340.0" y="375.0" style="font-family:arial;font-size:13px;stroke-width:0.5;stroke:#115566;fill:#115566;">Cout</text>
  <text for="Cout" x="1340.0" y="385.0" style="font-family:arial;font-size:10px;stroke-width:0.1;stroke:#CC0000;fill:#CC0000;">4.7uF</text>
  <text for="Cout" x="1340.0" y="395.0" style="font-family:arial;font-size:10px;stroke-width:0.1;stroke:#CC0000;fill:#CC0000;">1mOhm</text>
  <use id="Coutx" class="comp" xlink:href="#WB_CAPACITOR" x="1410.0" y="375.0" transform="rotate(-90, 1410.0, 375.0)" cap="100nF" partNo="06033C104KAT2A" thermalId="0603" esr="50mOhm" manufacturer="AVX" />
  <text for="Coutx" x="1425.0" y="375.0" style="font-family:arial;font-size:13px;stroke-width:0.5;stroke:#115566;fill:#115566;">Coutx</text>
  <text for="Coutx" x="1425.0" y="385.0" style="font-family:arial;font-size:10px;stroke-width:0.1;stroke:#CC0000;fill:#CC0000;">100nF</text>
  <text for="Coutx" x="1425.0" y="395.0" style="font-family:arial;font-size:10px;stroke-width:0.1;stroke:#CC0000;fill:#CC0000;">50mOhm</text>
  <use id="Ccomp2" class="comp" xlink:href="#WB_CAPACITOR" x="675.0" y="455.0" transform="rotate(-90, 675.0, 455.0)" cap="1pF" partNo="GRM1555C1H1R0CA01D" thermalId="0402" esr="1mOhm" manufacturer="MuRata" />
  <text for="Ccomp2" x="690.0" y="455.0" style="font-family:arial;font-size:13px;stroke-width:0.5;stroke:#115566;fill:#115566;">Ccomp2</text>
  <text for="Ccomp2" x="690.0" y="465.0" style="font-family:arial;font-size:10px;stroke-width:0.1;stroke:#CC0000;fill:#CC0000;">1pF</text>
  <text for="Ccomp2" x="690.0" y="475.0" style="font-family:arial;font-size:10px;stroke-width:0.1;stroke:#CC0000;fill:#CC0000;">1mOhm</text>
  <use id="D1" class="comp" xlink:href="#WB_DIODE_SCHOTTKY" x="1170.0" y="225.0" transform="rotate(-180, 1170.0, 225.0)" vfatio="1V" partNo="BAT54WSTR" io="200mA" thermalId="SOD-323" vrrm="" manufacturer="SMC Diode Solutions" />
  <text for="D1" x="1150.0" y="210.0" style="font-family:arial;font-size:13px;stroke-width:0.5;stroke:#115566;fill:#115566;">D1</text>
  <text for="D1" x="1150.0" y="245.0" style="font-family:arial;font-size:10px;stroke-width:0.1;stroke:#CC0000;fill:#CC0000;">1V</text>
  <text for="D1" x="1150.0" y="255.0" style="font-family:arial;font-size:10px;stroke-width:0.1;stroke:#CC0000;fill:#CC0000;">200mA</text>
  <use id="GND8" class="other" xlink:href="#WB_GND" x="835.0" y="570.0" />
  <use id="U1" class="comp" xlink:href="#WB_LM5158RTE" x="780.0" y="215.0" />
  <text for="U1" x="760.0" y="215.0" style="font-family:arial;font-size:13px;stroke-width:0.5;stroke:#115566;fill:#115566;">U1</text>
  <use id="GND9" class="other" xlink:href="#WB_GND" x="520.0" y="175.0" />
  <use id="Cvcc" class="comp" xlink:href="#WB_CAPACITOR" x="600.0" y="215.0" transform="rotate(-180, 600.0, 215.0)" cap="1uF" partNo="EMK107B7105KA-T" thermalId="0603" esr="1mOhm" manufacturer="Taiyo Yuden" />
  <text for="Cvcc" x="580.0" y="200.0" style="font-family:arial;font-size:13px;stroke-width:0.5;stroke:#115566;fill:#115566;">Cvcc</text>
  <text for="Cvcc" x="580.0" y="235.0" style="font-family:arial;font-size:10px;stroke-width:0.1;stroke:#CC0000;fill:#CC0000;">1uF</text>
  <text for="Cvcc" x="580.0" y="245.0" style="font-family:arial;font-size:10px;stroke-width:0.1;stroke:#CC0000;fill:#CC0000;">1mOhm</text>
  <use id="Css" class="comp" xlink:href="#WB_CAPACITOR" x="600.0" y="420.0" transform="rotate(-90, 600.0, 420.0)" cap="12nF" partNo="GRM155R71C123KA01D" thermalId="0402" esr="1mOhm" manufacturer="MuRata" />
  <text for="Css" x="615.0" y="420.0" style="font-family:arial;font-size:13px;stroke-width:0.5;stroke:#115566;fill:#115566;">Css</text>
  <text for="Css" x="615.0" y="430.0" style="font-family:arial;font-size:10px;stroke-width:0.1;stroke:#CC0000;fill:#CC0000;">12nF</text>
  <text for="Css" x="615.0" y="440.0" style="font-family:arial;font-size:10px;stroke-width:0.1;stroke:#CC0000;fill:#CC0000;">1mOhm</text>
  <use id="Rcomp" class="comp" xlink:href="#WB_RESISTOR" x="745.0" y="415.0" transform="rotate(-90, 745.0, 415.0)" partNo="CRCW04023K16FKED" thermalId="0402" resistance="3.16kOhm" manufacturer="Vishay-Dale" />
  <text for="Rcomp" x="760.0" y="415.0" style="font-family:arial;font-size:13px;stroke-width:0.5;stroke:#115566;fill:#115566;">Rcomp</text>
  <text for="Rcomp" x="760.0" y="425.0" style="font-family:arial;font-size:10px;stroke-width:0.1;stroke:#CC0000;fill:#CC0000;">3.16kOhm</text>
  <use id="Vin" class="other" xlink:href="#WB_BATTERY" x="100.0" y="415.0" transform="rotate(-270, 100.0, 415.0)" />
  <text for="Vin" x="115.0" y="415.0" style="font-family:arial;font-size:13px;stroke-width:0.5;stroke:#CC0000;fill:#CC0000;">Vin</text>
  <use id="Iout" class="other" xlink:href="#WB_CURRENT_LOAD" x="1530.0" y="475.0" transform="rotate(-270, 1530.0, 475.0)" />
  <text for="Iout" x="1545.0" y="475.0" style="font-family:arial;font-size:13px;stroke-width:0.5;stroke:#CC0000;fill:#CC0000;">Iout</text>
  <line x1="195.0" y1="555.0" x2="195.0" y2="365.0" stroke="#000000" stroke-width="2" fill="none" />
  <line x1="345.0" y1="265.0" x2="345.0" y2="110.0" stroke="#000000" stroke-width="2" fill="none" />
  <line x1="410.0" y1="285.0" x2="410.0" y2="555.0" stroke="#000000" stroke-width="2" fill="none" />
  <line x1="520.0" y1="165.0" x2="520.0" y2="145.0" stroke="#000000" stroke-width="2" fill="none" />
  <line x1="520.0" y1="145.0" x2="615.0" y2="145.0" stroke="#000000" stroke-width="2" fill="none" />
  <line x1="525.0" y1="445.0" x2="525.0" y2="555.0" stroke="#000000" stroke-width="2" fill="none" />
  <line x1="525.0" y1="385.0" x2="525.0" y2="305.0" stroke="#000000" stroke-width="2" fill="none" />
  <line x1="555.0" y1="215.0" x2="555.0" y2="145.0" stroke="#000000" stroke-width="2" fill="none" />
  <line x1="570.0" y1="215.0" x2="555.0" y2="215.0" stroke="#000000" stroke-width="2" fill="none" />
  <line x1="600.0" y1="450.0" x2="600.0" y2="555.0" stroke="#000000" stroke-width="2" fill="none" />
  <line x1="600.0" y1="390.0" x2="600.0" y2="325.0" stroke="#000000" stroke-width="2" fill="none" />
  <line x1="630.0" y1="215.0" x2="725.0" y2="215.0" stroke="#000000" stroke-width="2" fill="none" />
  <line x1="675.0" y1="485.0" x2="675.0" y2="555.0" stroke="#000000" stroke-width="2" fill="none" />
  <line x1="675.0" y1="425.0" x2="675.0" y2="345.0" stroke="#000000" stroke-width="2" fill="none" />
  <line x1="675.0" y1="145.0" x2="745.0" y2="145.0" stroke="#000000" stroke-width="2" fill="none" />
  <line x1="685.0" y1="110.0" x2="685.0" y2="145.0" stroke="#000000" stroke-width="2" fill="none" />
  <line x1="725.0" y1="215.0" x2="725.0" y2="235.0" stroke="#000000" stroke-width="2" fill="none" />
  <line x1="745.0" y1="515.0" x2="745.0" y2="555.0" stroke="#000000" stroke-width="2" fill="none" />
  <line x1="745.0" y1="445.0" x2="745.0" y2="455.0" stroke="#000000" stroke-width="2" fill="none" />
  <line x1="745.0" y1="385.0" x2="745.0" y2="345.0" stroke="#000000" stroke-width="2" fill="none" />
  <line x1="745.0" y1="215.0" x2="780.0" y2="215.0" stroke="#000000" stroke-width="2" fill="none" />
  <line x1="745.0" y1="145.0" x2="745.0" y2="215.0" stroke="#000000" stroke-width="2" fill="none" />
  <line x1="780.0" y1="345.0" x2="675.0" y2="345.0" stroke="#000000" stroke-width="2" fill="none" />
  <line x1="780.0" y1="325.0" x2="600.0" y2="325.0" stroke="#000000" stroke-width="2" fill="none" />
  <line x1="780.0" y1="305.0" x2="525.0" y2="305.0" stroke="#000000" stroke-width="2" fill="none" />
  <line x1="780.0" y1="285.0" x2="410.0" y2="285.0" stroke="#000000" stroke-width="2" fill="none" />
  <line x1="780.0" y1="265.0" x2="345.0" y2="265.0" stroke="#000000" stroke-width="2" fill="none" />
  <line x1="780.0" y1="235.0" x2="725.0" y2="235.0" stroke="#000000" stroke-width="2" fill="none" />
  <line x1="835.0" y1="555.0" x2="835.0" y2="560.0" stroke="#000000" stroke-width="2" fill="none" />
  <line x1="895.0" y1="110.0" x2="1045.0" y2="110.0" stroke="#000000" stroke-width="2" fill="none" />
  <line x1="970.0" y1="345.0" x2="980.0" y2="345.0" stroke="#000000" stroke-width="2" fill="none" />
  <line x1="970.0" y1="335.0" x2="980.0" y2="335.0" stroke="#000000" stroke-width="2" fill="none" />
  <line x1="970.0" y1="325.0" x2="980.0" y2="325.0" stroke="#000000" stroke-width="2" fill="none" />
  <line x1="970.0" y1="245.0" x2="1085.0" y2="245.0" stroke="#000000" stroke-width="2" fill="none" />
  <line x1="980.0" y1="325.0" x2="980.0" y2="555.0" stroke="#000000" stroke-width="2" fill="none" />
  <line x1="990.0" y1="225.0" x2="990.0" y2="215.0" stroke="#000000" stroke-width="2" fill="none" />
  <line x1="990.0" y1="215.0" x2="970.0" y2="215.0" stroke="#000000" stroke-width="2" fill="none" />
  <line x1="1045.0" y1="110.0" x2="1045.0" y2="225.0" stroke="#000000" stroke-width="2" fill="none" />
  <line x1="1085.0" y1="385.0" x2="1230.0" y2="385.0" stroke="#000000" stroke-width="2" fill="none" />
  <line x1="1085.0" y1="245.0" x2="1085.0" y2="385.0" stroke="#000000" stroke-width="2" fill="none" />
  <line x1="1230.0" y1="465.0" x2="1230.0" y2="555.0" stroke="#000000" stroke-width="2" fill="none" />
  <line x1="1230.0" y1="340.0" x2="1230.0" y2="405.0" stroke="#000000" stroke-width="2" fill="none" />
  <line x1="1230.0" y1="280.0" x2="1230.0" y2="225.0" stroke="#000000" stroke-width="2" fill="none" />
  <line x1="1325.0" y1="405.0" x2="1325.0" y2="555.0" stroke="#000000" stroke-width="2" fill="none" />
  <line x1="1410.0" y1="405.0" x2="1410.0" y2="555.0" stroke="#000000" stroke-width="2" fill="none" />
  <line x1="1410.0" y1="345.0" x2="1410.0" y2="225.0" stroke="#000000" stroke-width="2" fill="none" />
  <line x1="970.0" y1="225.0" x2="1140.0" y2="225.0" stroke="#000000" stroke-width="2" fill="none" />
  <line x1="100.0" y1="555.0" x2="1530.0" y2="555.0" stroke="#000000" stroke-width="2" fill="none" />
  <line x1="100.0" y1="110.0" x2="835.0" y2="110.0" stroke="#000000" stroke-width="2" fill="none" />
  <line x1="195.0" y1="305.0" x2="195.0" y2="110.0" stroke="#000000" stroke-width="2" fill="none" />
  <line x1="1200.0" y1="225.0" x2="1530.0" y2="225.0" stroke="#000000" stroke-width="2" fill="none" />
  <line x1="1325.0" y1="345.0" x2="1325.0" y2="225.0" stroke="#000000" stroke-width="2" fill="none" />
  <line x1="100.0" y1="385.0" x2="100.0" y2="110.0" stroke="#000000" stroke-width="2" fill="none" />
  <line x1="100.0" y1="555.0" x2="100.0" y2="445.0" stroke="#000000" stroke-width="2" fill="none" />
  <line x1="1530.0" y1="445.0" x2="1530.0" y2="225.0" stroke="#000000" stroke-width="2" fill="none" />
  <line x1="1530.0" y1="555.0" x2="1530.0" y2="505.0" stroke="#000000" stroke-width="2" fill="none" />
  <circle cx="555.0" cy="145.0" r="5" stroke="#000000" stroke-width="0" fill="#000000" />
  <circle cx="685.0" cy="145.0" r="5" stroke="#000000" stroke-width="0" fill="#000000" />
  <circle cx="745.0" cy="345.0" r="5" stroke="#000000" stroke-width="0" fill="#000000" />
  <circle cx="980.0" cy="345.0" r="5" stroke="#000000" stroke-width="0" fill="#000000" />
  <circle cx="980.0" cy="335.0" r="5" stroke="#000000" stroke-width="0" fill="#000000" />
  <circle cx="1230.0" cy="385.0" r="5" stroke="#000000" stroke-width="0" fill="#000000" />
  <circle cx="990.0" cy="225.0" r="5" stroke="#000000" stroke-width="0" fill="#000000" />
  <circle cx="1045.0" cy="225.0" r="5" stroke="#000000" stroke-width="0" fill="#000000" />
  <circle cx="195.0" cy="555.0" r="5" stroke="#000000" stroke-width="0" fill="#000000" />
  <circle cx="410.0" cy="555.0" r="5" stroke="#000000" stroke-width="0" fill="#000000" />
  <circle cx="525.0" cy="555.0" r="5" stroke="#000000" stroke-width="0" fill="#000000" />
  <circle cx="600.0" cy="555.0" r="5" stroke="#000000" stroke-width="0" fill="#000000" />
  <circle cx="675.0" cy="555.0" r="5" stroke="#000000" stroke-width="0" fill="#000000" />
  <circle cx="745.0" cy="555.0" r="5" stroke="#000000" stroke-width="0" fill="#000000" />
  <circle cx="835.0" cy="555.0" r="5" stroke="#000000" stroke-width="0" fill="#000000" />
  <circle cx="980.0" cy="555.0" r="5" stroke="#000000" stroke-width="0" fill="#000000" />
  <circle cx="1230.0" cy="555.0" r="5" stroke="#000000" stroke-width="0" fill="#000000" />
  <circle cx="1325.0" cy="555.0" r="5" stroke="#000000" stroke-width="0" fill="#000000" />
  <circle cx="1410.0" cy="555.0" r="5" stroke="#000000" stroke-width="0" fill="#000000" />
  <circle cx="345.0" cy="110.0" r="5" stroke="#000000" stroke-width="0" fill="#000000" />
  <circle cx="685.0" cy="110.0" r="5" stroke="#000000" stroke-width="0" fill="#000000" />
  <circle cx="195.0" cy="110.0" r="5" stroke="#000000" stroke-width="0" fill="#000000" />
  <circle cx="1230.0" cy="225.0" r="5" stroke="#000000" stroke-width="0" fill="#000000" />
  <circle cx="1410.0" cy="225.0" r="5" stroke="#000000" stroke-width="0" fill="#000000" />
  <circle cx="1325.0" cy="225.0" r="5" stroke="#000000" stroke-width="0" fill="#000000" />
</svg>

